<svg width="134" height="99" viewBox="0 0 134 99" fill="none" xmlns="http://www.w3.org/2000/svg">
<g style="mix-blend-mode:multiply" opacity="0.6">
<g style="mix-blend-mode:multiply" opacity="0.6">
<path d="M4.83543 71.8242C5.62556 72.1035 6.13635 72.5265 7.04619 72.5904C8.08372 72.6542 8.94567 72.6941 9.97523 72.8936C11.2123 73.1251 12.7367 73.2608 13.9737 73.0533C16.1286 72.7021 18.6586 73.3087 20.8135 72.75C20.8454 72.742 20.8773 72.734 20.9013 72.726C21.1966 72.6462 21.4759 72.5425 21.7553 72.4148C21.7792 72.3988 21.8032 72.4148 21.8191 72.4387C22.689 72.1434 23.551 71.8002 24.4289 71.4571C26.496 70.643 28.4194 69.7252 30.3748 68.6637C30.4147 68.6397 30.4626 68.7196 30.4227 68.7435C27.4537 70.5472 24.2214 72.0237 20.9651 73.2288C19.5046 73.7716 18.3553 73.9072 16.815 73.7875C15.4422 73.6758 14.1653 73.4842 12.9601 74.3302C11.755 75.1762 11.2682 77.3311 12.617 78.3367C14.1174 79.4541 16.6634 79.2625 18.3713 78.7996C20.3745 78.2569 22.1703 77.2353 23.958 76.2058C26.2326 74.8969 29.9997 72.1115 32.7771 73.3805C33.3278 73.0134 33.9503 72.8059 34.8043 72.8298C34.8761 72.8298 34.9559 72.9655 34.8601 72.9814C33.224 73.181 32.4259 74.5697 31.4602 75.7429C30.6142 76.7645 29.5847 77.6743 28.587 78.5442C27.7251 79.3024 26.7753 79.8771 25.7777 80.4198C24.7482 80.9864 23.551 81.3615 22.6252 82.0719C21.3402 83.0615 21.5078 84.7056 23.0322 85.5117C23.7505 85.8948 24.7402 85.9347 25.5064 85.7431C26.7514 85.4399 27.0706 84.0352 27.8927 83.253C29.5527 81.6808 31.3884 80.2602 33.0963 78.7358C36.7756 75.4556 41.4365 73.7716 46.3289 73.6598C48.6354 73.6119 50.9419 74.1147 53.2325 74.3462C54.6691 74.4978 56.0977 74.865 57.5423 74.9208C58.3723 74.9528 58.931 74.9767 59.7291 74.7692C60.4155 74.5936 61.0938 73.7795 60.9103 73.1411C60.2957 72.9256 59.6812 72.7101 59.0667 72.4786C57.7418 71.9918 56.4489 71.4251 55.1799 70.8026C54.5254 70.6669 53.887 70.5153 53.2166 70.3158C52.2508 70.0284 51.2931 70.1083 50.3274 69.9327C48.5317 69.6134 46.6162 69.3421 45.0839 68.2726C43.9107 67.4506 43.5595 66.022 43.3121 64.6652C43.2402 64.2741 43.2482 63.484 43.5036 63.0051C41.4684 61.377 39.3854 59.8287 37.2545 58.3282C35.7301 57.2588 34.3733 56.0696 33.0644 54.8086C34.3494 58.5437 33.4635 62.8455 30.0875 65.0882C29.2654 65.6309 28.4194 66.1177 27.5734 66.5806C27.5734 66.6365 27.5814 66.6764 27.5734 66.7403C27.4298 67.8656 26.1209 68.8473 25.2829 69.4538C22.8327 71.2256 19.2013 71.2495 16.2643 71.497C14.3648 71.6566 7.14995 72.311 5.70538 69.8449C5.50585 69.8928 5.30632 69.9486 5.11477 70.0205C4.36456 70.1961 4.27676 70.8026 4.8514 71.8322L4.83543 71.8242ZM26.6317 83.1014C26.2725 84.0671 25.2669 85.0009 24.1975 84.4342C22.5613 83.5643 24.3172 80.8587 25.8655 81.585C26.1368 81.5611 26.3843 81.6249 26.5918 81.8643C26.8871 82.1995 26.7674 82.7183 26.6317 83.0934V83.1014ZM22.0585 75.3119C21.0928 77.5227 17.1582 78.624 14.9634 78.4086C13.5986 78.2729 11.3959 76.0621 13.032 74.833C13.9578 74.1387 15.2986 74.2265 16.5436 74.4739C18.1877 74.442 19.8159 74.3781 21.46 74.2744C22.1543 74.2345 22.282 74.7772 22.0505 75.3039L22.0585 75.3119ZM31.0053 69.2383C32.0987 67.9294 33.248 66.7403 34.1658 65.2877C34.8123 64.2741 35.2672 63.1568 35.6742 62.0314C35.8258 61.6084 36.0413 60.8343 36.4643 60.5709C37.3502 60.0122 38.4676 61.2413 39.0661 61.7361C40.4628 62.8934 41.4844 64.2262 42.1788 65.9102C42.8172 67.4905 43.5196 68.5679 45.0439 69.39C45.5547 69.6693 46.0895 69.9087 46.6242 70.1561C48.2763 70.651 49.7687 70.7308 51.5086 70.8186C52.1152 70.8505 53.1607 71.042 53.3123 71.7843C53.6076 73.157 50.4392 72.742 49.7767 72.7021C47.0233 72.5265 44.6609 72.0157 41.8914 72.7021C37.8211 73.6997 34.4371 76.5889 31.2128 79.1029C31.0612 79.2226 30.8217 78.9832 30.7818 78.8555C29.6006 75.3358 35.4827 74.0509 37.8052 72.5664C35.8259 72.0796 33.9184 72.2791 31.8912 72.5425C31.141 72.6383 30.0875 72.6861 29.7363 71.8561C29.3772 71.0021 30.5504 69.813 31.0133 69.2543L31.0053 69.2383Z" fill="#6BA74D"/>
</g>
<g style="mix-blend-mode:multiply" opacity="0.6">
<path d="M7.6134 59.9802C8.65892 60.2755 10.0237 59.3337 11.0133 59.0624C12.5616 58.6473 13.9025 58.36 15.5306 58.36C17.1587 58.36 18.707 58.4558 20.3591 58.807C22.2347 59.198 24.1102 59.9083 26.0177 60.1318C27.4623 59.8844 28.8111 59.3816 29.689 58.0567C29.7289 57.9929 29.8326 58.0807 29.8007 58.1366C29.1942 59.3816 28.1167 60.3313 26.728 60.5788C25.3712 60.8182 20.6624 60.9938 22.1309 63.4519C23.6473 65.9739 27.5979 64.3378 29.3617 63.1487C30.7105 62.2388 32.3068 61.1614 33.0171 59.621C33.3523 57.9929 33.3203 56.245 32.9293 54.6808C32.2908 54.0503 31.6523 53.4118 31.0218 52.7573C30.8542 53.324 30.543 53.8108 29.8247 53.9465C28.2285 54.2498 26.4726 54.3456 24.8764 53.9864C24.7008 53.9465 24.5173 53.9066 24.3337 53.8667C22.8652 54.6089 21.1253 54.2578 19.4732 53.8268C18.1723 53.4916 16.7916 52.9728 15.4348 53.1165C14.8123 53.1803 14.1898 53.4118 13.5912 53.5794C12.3541 53.9146 9.14576 54.6648 8.7068 53.4038C8.57112 53.4756 8.43545 53.5395 8.30775 53.6113C7.70119 54.0423 7.6134 54.4972 8.02043 54.9681C8.06034 55.016 8.09225 55.0559 8.14014 55.0958C8.34765 55.2953 8.62699 55.4868 9.0021 55.6864C9.52885 55.7023 10.0716 55.5667 10.5744 55.423C11.3326 55.2155 12.1067 54.4493 12.8569 54.138C14.3255 53.5395 16.0334 54.146 17.5179 54.3376C18.731 54.4972 19.9042 54.8723 21.0455 55.3113C21.2371 55.2793 21.4366 55.2474 21.6361 55.2155C22.6577 55.0559 23.6952 55.2394 24.7168 55.2155C25.3553 55.1995 26.0496 55.3033 26.7041 55.2474C26.6322 55.3033 26.5444 55.3272 26.4726 55.3671C27.2867 55.4629 27.9411 55.7582 27.5341 56.6042C27.2308 57.2427 26.1614 57.538 25.5548 57.7215C24.222 58.1126 22.937 58.1765 21.5563 58.0089C19.4253 57.7455 17.462 57.0751 15.2912 57.1948C13.5992 57.2826 12.0828 57.937 10.4866 58.4398C9.69645 58.6952 8.73074 59.0145 7.9885 58.5037C7.5655 58.2164 7.49368 57.8333 7.59744 57.4582C7.54157 57.4821 7.49368 57.4901 7.43782 57.522C6.2646 58.0488 6.46412 59.637 7.64532 59.9722L7.6134 59.9802ZM26.7121 63.7313C25.6665 64.0585 23.9746 64.2021 23.5196 62.9332C23.0168 61.5205 25.1079 61.1694 26.2092 61.0097C27.1031 60.7224 28.2524 60.5149 28.7712 61.297C29.6571 62.6139 27.6538 63.436 26.7041 63.7313H26.7121Z" fill="#6BA74D"/>
</g>
<g style="mix-blend-mode:multiply" opacity="0.6">
<path d="M105.788 47.6974C105.788 47.6974 105.74 47.7453 105.709 47.7533C105.246 48.9106 104.703 50.0518 104.384 51.233C103.721 53.6274 103.657 56.0935 103.155 58.5197C102.061 63.8591 97.5599 67.0834 95.405 71.888C94.7985 73.2368 94.4393 74.6574 94.136 76.11C94.1121 76.2137 94.1041 76.3175 94.0882 76.4292C94.7187 76.1419 95.5966 76.11 96.2431 75.9583C97.4242 75.679 98.5735 75.3438 99.7388 75.0405C100.72 74.7771 101.726 74.2185 102.588 73.6518C102.931 73.157 103.306 72.6701 103.737 72.1913C104.559 71.2814 105.916 70.4354 107.033 69.9167C107.68 69.6214 108.502 69.2702 109.284 69.0388C106.746 67.9693 104.535 66.1416 103.155 63.7074C103.131 63.6516 103.187 63.6436 103.21 63.6835C104.831 66.0379 107.44 67.8336 110.17 68.8392C110.194 68.8392 110.218 68.8313 110.242 68.8313C110.258 68.8313 110.282 68.8712 110.258 68.8791C110.761 69.0627 111.263 69.2223 111.774 69.35C114.424 70.0124 117.872 69.2064 120.17 67.8416C122.756 66.3013 124.799 64.1384 126.563 61.7201C127.848 59.9563 129.037 56.9874 131.224 56.1494C131.256 56.1414 131.312 56.1973 131.28 56.2212C130.035 57.0592 129.229 58.7432 128.463 59.9883C127.648 61.3131 126.779 62.5821 125.805 63.7952C123.849 66.2294 121.24 68.4162 118.247 69.4538C115.39 70.4354 112.253 70.2439 109.484 69.1265C107.991 69.7012 106.586 70.8425 105.405 71.7842C103.586 73.2368 102.372 74.9048 101.423 77.0278C100.545 78.9911 100.066 80.9066 98.8289 82.6943C98.1904 83.6122 97.2885 84.2427 96.7219 85.2323C96.3149 85.9426 96.1393 86.7327 96.5224 87.4909C96.8177 88.0815 97.2088 88.2332 97.6397 88.2172C98.8209 87.1956 99.7148 85.8229 100.409 84.4342C102.029 81.1779 102.827 77.5226 105.086 74.5856C105.086 74.5776 105.11 74.5856 105.102 74.6016C102.317 78.9113 102.468 84.5459 98.7012 88.1773C98.7012 88.2013 98.6932 88.2172 98.6693 88.2332C98.6533 88.2332 98.6453 88.2491 98.6294 88.2491C98.3181 88.5444 97.9829 88.8397 97.6078 89.1031C96.7937 89.6857 95.7163 90.1566 94.7266 90.3322C93.1943 90.6035 91.5981 90.3162 90.4009 91.5533C89.7145 92.2716 89.4352 93.4288 89.7624 94.3706C90.2413 95.7513 91.7976 95.7354 92.9788 95.6556C94.9421 95.5279 96.267 93.9396 96.9853 92.2796C97.0252 92.1838 97.1848 92.3035 97.1609 92.3833C96.8735 93.3969 96.3468 94.3467 95.6445 95.0729C96.666 94.7138 97.6876 94.3626 98.6853 93.8997C100.234 93.1814 101.487 92.1599 102.803 91.1064C104.982 89.3505 106.052 86.3018 108.709 85.1764C108.709 83.5722 108.749 81.984 109.26 80.4517C110.002 78.2249 111.12 76.8761 112.892 75.3917C112.907 75.3837 112.939 75.4076 112.923 75.4236C111.479 76.94 110.673 78.4404 109.923 80.3798C109.675 81.0103 109.524 81.6568 109.404 82.3033C109.412 82.3192 109.428 82.3352 109.42 82.3511C109.029 84.099 109.212 85.8947 108.797 87.6745C108.446 89.1749 107.776 90.4679 106.443 91.2899C105.589 91.8167 104.823 92.3434 104.248 93.1814C103.729 93.9476 103.673 94.7138 104.208 95.6955C104.958 97.0682 106.267 96.9645 107.424 96.4856C109.348 95.6875 110.138 93.4288 111.303 91.9124C112.476 90.3881 113.985 89.59 115.725 88.7839C117.664 87.882 119.364 86.613 120.761 84.9929C122.908 82.4948 123.61 79.0231 125.358 76.2297C125.685 75.5274 126.044 74.849 126.475 74.1945C127.058 73.3166 127.872 72.5903 128.518 71.7523C130.019 69.8129 131.408 67.7698 132.357 65.4872C132.836 64.3379 133.052 63.0051 133.203 61.776C133.395 60.2037 133.068 58.847 132.876 57.3146C132.605 55.1358 132.254 53.2123 132.621 51.0176C132.916 49.2138 132.732 47.2984 131.982 45.6543C132.445 48.0965 132.277 50.6504 130.953 52.8293C128.806 56.3569 126.579 59.9883 123.961 63.1887C120.162 67.8496 112.78 69.4218 108.438 64.6811C106.395 62.4544 105.581 59.238 105.748 56.2771C105.796 55.3752 105.988 54.4813 106.267 53.6194C106.355 52.7814 106.507 51.9513 106.786 51.1293C107.417 49.2617 108.215 47.442 109.3 45.7979C110.346 44.2177 111.67 43.1961 113.626 43.2201C115.046 43.244 116.395 43.3238 117.808 43.0684C119.34 42.7891 120.793 42.1905 122.158 41.4483C119.971 41.7835 117.936 42.007 115.693 41.975C113.618 41.9511 111.638 41.3525 109.587 41.1769C109.579 41.1769 109.563 41.153 109.587 41.153C111.982 40.9295 114.512 41.3206 116.93 41.3525C118.159 41.3685 119.42 41.2248 120.665 41.0333C119.516 40.2431 118.989 38.5432 118.438 37.354C117.68 35.7099 117.153 33.9381 116.595 32.1982C117.026 34.0818 117.257 36.3085 116.132 37.9845C115.198 39.3812 113.283 39.6685 111.75 39.6765C109.364 39.6924 106.922 38.7507 104.679 38.0324C101.686 37.0747 98.7571 36.3005 95.6125 36.1169C92.4441 35.9254 89.2756 36.3803 86.2348 37.2183C84.9419 37.5775 83.7846 38.0404 82.6034 38.6469C82.5316 38.6868 82.4598 38.7188 82.3879 38.7587C84.7024 38.5671 87.0169 38.4474 89.3394 38.1681C93.5694 37.6653 97.7834 37.7291 101.774 39.3333C105.03 40.6422 108.262 44.3374 105.804 47.7214L105.788 47.6974ZM109.476 93.4688C109.476 93.5805 109.412 93.6204 109.324 93.6204C109.14 94.3467 108.55 95.0809 108.039 95.5039C107.129 96.2621 105.429 96.3739 105.214 94.8654C105.038 93.5965 106.259 92.3354 107.313 91.8246C108.622 91.1941 109.452 92.2157 109.476 93.4688ZM96.1393 92.4312C96.1473 92.5749 96.0435 92.5988 95.9238 92.5669C95.7722 93.0697 95.3172 93.6124 94.9581 93.9396C94.0642 94.7537 92.3563 95.8311 91.215 94.8814C88.6451 92.7505 95.9557 89.2228 96.1393 92.4312ZM99.5951 84.3863C99.4195 85.2882 98.9566 86.7088 97.8552 86.7647C97.6637 86.7726 97.4881 86.629 97.4642 86.4374C97.3444 85.4957 98.0867 84.2267 99.0683 84.0751C99.0763 84.0751 99.0923 84.0751 99.1082 84.0751C99.1881 83.8436 99.651 84.1389 99.6031 84.3783L99.5951 84.3863ZM112.277 74.011C111.91 75.1602 110.936 75.8785 110.002 76.6208C108.797 78.1451 108.199 80.0845 107.536 81.9202C106.746 84.107 105.613 86.3097 103.809 87.8182C103.226 88.305 101.71 89.5101 101.127 88.3848C100.864 87.874 101.359 87.036 101.598 86.637C102.404 85.2882 103.211 83.9474 103.929 82.5587C105.15 80.1963 105.565 77.5545 106.738 75.2081C107.488 73.7157 109.045 72.2312 110.777 72.0556C111.75 71.9598 112.564 73.1011 112.269 74.011H112.277ZM131.08 64.4816C130.043 68.1608 127.074 71.034 124.983 74.1147C123.802 75.8466 123.115 77.9137 122.15 79.7892C122.102 79.9089 122.054 80.0287 122.014 80.1484C120.952 82.7502 118.933 84.9849 116.754 86.7248C115.358 87.8421 113.291 89.0073 111.734 87.5628C109.875 85.8389 110.577 82.415 111.287 80.3559C112.309 77.355 114.312 75.0405 117.193 73.7396C118.79 73.0133 120.434 72.5424 121.91 71.5608C123.873 70.2519 125.326 67.9374 126.603 66.006C126.906 65.5431 127.13 64.9365 127.337 64.29C127.537 62.4464 128.542 59.0465 130.745 59.677C132.389 60.1479 131.368 63.4839 131.08 64.4816Z" fill="#6BA74D"/>
</g>
<g style="mix-blend-mode:multiply" opacity="0.6">
<path d="M81.1187 75.2641C78.5409 75.288 75.955 75.7589 73.5766 76.7805C72.8982 77.0678 65.8271 80.3161 68.7082 81.4494C68.7401 81.4574 68.7641 81.4654 68.796 81.4734C67.2557 81.7447 65.7073 82.032 64.1989 82.5029C63.1055 82.8461 61.2699 83.74 59.3863 84.3785C59.7854 84.0193 59.9131 83.5484 59.2826 83.0536C59.107 82.9179 58.8995 82.8062 58.676 82.7264C58.5962 82.6466 58.4925 82.5827 58.3967 82.5987C58.3648 82.5987 58.3249 82.6067 58.285 82.6146C57.7901 82.5189 57.2714 82.5428 56.8244 82.7423C55.8906 82.8621 54.9808 83.1494 55.0925 84.131C55.1564 84.6977 55.5634 84.977 56.0742 85.0968C55.0047 85.1287 54.0869 84.8733 53.4963 84.1151C53.5203 83.6442 53.8076 83.293 54.3742 83.0616C54.6216 82.9339 54.8691 82.8381 55.1324 82.7503C55.7709 82.5668 56.4014 82.4949 57.0559 82.4071C58.0375 82.2715 59.0272 82.1996 60.0009 82.032C64.6219 81.2658 68.4129 78.0495 72.7865 76.5171C75.1968 75.6711 78.0141 75.0247 80.576 74.9927C82.0765 74.9688 83.9361 75.1125 85.6201 75.5833C85.5402 75.6632 85.4684 75.7589 85.4046 75.8547C83.96 75.4397 82.4356 75.2481 81.1028 75.2561L81.1187 75.2641Z" fill="#6BA74D"/>
</g>
<g style="mix-blend-mode:multiply" opacity="0.6">
<path d="M61.9002 83.963C64.7095 82.8376 67.5348 82.2869 70.5117 81.7602C73.9356 81.1536 77.575 79.0865 81.0148 80.0363C80.9988 80.0443 80.9829 80.0523 80.9669 80.0602C80.4402 80.0602 79.8975 80.0283 79.3947 80.1081C78.7881 80.2039 78.1496 80.4673 77.567 80.6588C76.4895 81.018 75.6356 81.6325 74.7736 82.3029C73.9356 82.2949 73.1615 82.2151 72.2915 82.3747C71.4854 82.5264 70.6794 82.6142 69.8813 82.8297C68.5564 83.1888 67.2475 83.5719 65.9226 83.9071C64.6616 84.2343 63.3767 84.3301 62.1237 84.6015C60.8707 84.8728 59.6974 85.3836 58.4683 85.7028C57.2632 86.0061 55.3079 86.4371 54.1506 85.7667C53.9112 85.4235 53.7356 85.1043 53.6318 84.8169C55.7149 86.4371 59.6496 84.8489 61.8922 83.955L61.9002 83.963Z" fill="#6BA74D"/>
</g>
<g style="mix-blend-mode:multiply" opacity="0.6">
<path d="M68.1891 89.4546C66.1938 91.1945 64.446 93.2935 65.8427 95.9192C67.0718 98.2337 68.8675 97.8028 70.4478 96.6375C70.3919 96.7493 70.336 96.853 70.2802 96.9647C69.8492 97.7389 69.2266 98.5929 68.3168 98.8403C67.1596 99.1516 66.2497 98.4173 65.4277 97.691C63.7197 96.1826 63.6319 93.5648 65.2361 91.9048C66.0821 91.0348 67.0398 89.9813 68.1891 89.4546Z" fill="#6BA74D"/>
</g>
<g style="mix-blend-mode:multiply" opacity="0.6">
<path d="M84.3589 74.8408C85.5082 74.8488 86.7053 74.8568 87.8306 75.0164C87.1044 74.9206 86.3941 75.0004 85.8673 75.3835C85.7476 75.3356 85.6358 75.2957 85.5241 75.2558C85.141 75.1202 84.75 74.9765 84.3589 74.8408Z" fill="#6BA74D"/>
</g>
<g style="mix-blend-mode:multiply" opacity="0.6">
<path d="M83.7281 87.1159C86.4656 86.621 89.0116 85.2802 90.3285 82.7103C91.2702 80.8747 92.2439 77.4189 90.1449 75.9184C89.6581 75.5673 88.9877 75.264 88.2853 75.1044C88.437 75.1363 88.5966 75.1523 88.7482 75.1922C89.6341 75.4156 90.6956 75.6471 91.4458 76.2217C91.9007 76.5809 92.3078 76.9959 92.7707 77.3391C92.8026 77.363 92.8266 77.3231 92.8026 77.2992C91.6055 76.11 90.8951 75.1682 89.1473 74.7213C87.567 74.3143 85.9788 74.2903 84.3826 74.4898C84.9892 73.9072 85.5 73.0373 85.7953 72.4626C86.5135 71.0819 86.9286 69.5735 87.1839 68.0491C87.7586 64.5933 87.8384 61.0657 88.5487 57.6339C89.259 54.21 90.2247 50.5148 92.8266 48.0007C94.0796 46.7876 95.58 45.766 97.256 45.2313C98.8762 44.7205 100.161 44.8722 101.773 45.2313C101.781 45.2313 101.781 45.2313 101.781 45.2313C101.797 45.2473 101.813 45.2632 101.837 45.2792C100.943 45.798 99.5227 45.5346 98.5889 45.9496C97.1363 46.6041 95.8194 47.5299 94.7659 48.735C90.2487 53.9067 88.3731 61.3371 88.7482 68.0731C88.86 70.0284 88.9717 72.319 90.0651 74.019C90.927 75.3757 92.5951 75.256 93.3533 73.8753C94.1674 72.3908 94.335 70.7467 95.2927 69.2862C96.3223 67.7219 97.5433 66.3013 98.6447 64.7929C99.7621 63.2605 100.848 61.5765 101.255 59.693C101.693 57.6817 101.646 55.6226 102.021 53.6114C102.659 50.1716 105.484 46.9153 104.152 43.3318C103.37 41.2408 101.111 40.315 99.3151 39.1338C100.744 39.5249 102.101 40.1234 103.354 40.9854C104.423 41.7276 105.564 42.6534 105.923 43.9783C106.211 45.0398 106.027 45.8778 105.692 46.7796C105.429 47.2346 105.141 47.6815 104.878 48.1604C104.255 49.2857 103.904 50.5307 103.537 51.7598C102.907 53.8349 103.05 56.1334 102.563 58.2644C101.925 61.0338 100.624 63.1567 98.8921 65.3675C97.3837 67.2909 95.8434 69.2543 94.9016 71.5289C94.4627 72.5824 94.0796 73.6678 93.8721 74.7851C93.6566 75.9504 93.7923 76.956 93.6725 78.1052C93.3693 80.9944 91.9885 83.3089 89.7299 85.1366C87.6309 86.8365 85.2924 87.9938 82.539 88.0736C81.4296 88.1055 80.4001 88.0816 79.3865 88.1853C80.7113 87.6905 82.1559 87.4191 83.7361 87.1318L83.7281 87.1159Z" fill="#6BA74D"/>
</g>
<g style="mix-blend-mode:multiply" opacity="0.6">
<path d="M73.1616 73.9469C76.0667 73.7474 79.0995 73.2685 81.4619 71.4409C83.6886 69.717 84.359 66.9156 84.4468 64.234C84.5107 62.2148 84.1994 58.6712 81.5657 58.3041C79.2671 57.9848 76.6733 59.2219 74.3747 59.5731C70.472 60.1637 64.3186 60.3712 63.4487 56.0374C65.1487 57.6337 67.8542 57.8252 70.1687 57.5778C74.6301 57.1069 78.5488 55.2234 82.1882 52.6455C85.4045 50.3629 88.3735 47.7292 91.9011 45.9015C94.7424 44.433 99.116 42.6213 101.726 45.1752C99.0442 44.1457 96.6339 44.2175 94.1199 45.8616C91.973 47.2583 90.5443 49.1897 89.5387 51.4164C88.9322 51.4084 88.3176 51.3127 87.751 51.5681C86.8012 51.999 85.9393 52.5896 85.0454 53.1164C83.114 54.2497 81.5098 55.9018 79.4188 56.7717C75.0691 58.5834 69.8575 60.3073 65.3242 58.0646C65.2684 58.0327 65.2764 58.1205 65.3163 58.1444C69.3227 60.3392 74.2949 59.613 78.3573 57.9689C80.5281 57.091 82.268 55.9417 84.1356 54.5689C85.213 53.7788 86.458 52.9887 87.6233 52.3183C88.2139 51.9831 88.8364 51.8474 89.4429 51.6559C89.1556 52.3183 88.9002 53.0126 88.6768 53.715C87.5754 57.2266 87.304 60.9538 86.881 64.5852C86.6576 66.5006 86.474 68.4161 86.0111 70.2916C85.7238 71.4728 85.0853 73.6357 83.928 74.5535C83.8163 74.5694 83.7046 74.5934 83.5929 74.6093C83.0661 74.4657 82.5314 74.3619 81.9966 74.354C78.9399 74.346 75.7714 74.737 72.8583 75.7586C72.7945 75.7826 72.7386 75.8065 72.6748 75.8304C71.4377 75.9422 70.1607 75.4474 68.9636 75.192C67.5829 74.9126 66.3937 74.2821 65.0609 73.8591C63.9036 73.5 62.7543 73.1009 61.613 72.6779C65.3641 73.6915 69.227 74.2103 73.1616 73.9389V73.9469Z" fill="#6BA74D"/>
</g>
<g style="mix-blend-mode:multiply" opacity="0.6">
<path d="M65.5797 39.5491C62.7544 39.9082 60.3361 38.2881 57.8859 37.1308C53.6879 35.1435 48.7955 34.2816 44.1825 34.0501C38.6516 33.7708 33.2564 33.8666 27.8293 32.5337C23.2083 31.4004 18.7149 29.6765 13.9822 29.1737C19.4652 28.1601 24.9881 29.3174 30.3034 30.8338C32.8175 31.5521 35.3395 32.2863 37.9253 32.7093C40.7905 33.1722 43.6797 33.1243 46.5528 33.5074C49.5856 33.9065 52.6025 34.4652 55.4836 35.5107C57.5906 36.2689 59.6657 37.2665 61.8685 37.7214C63.8158 38.1285 66.6092 38.5116 68.6524 37.6496C67.8064 38.5435 66.9444 39.3815 65.5876 39.5571L65.5797 39.5491Z" fill="#6BA74D"/>
</g>
<g style="mix-blend-mode:multiply" opacity="0.6">
<path d="M6.54392 26.4756C9.72836 25.9807 12.9447 25.1986 16.193 25.5498C19.4573 25.9089 22.7454 26.2521 25.9698 26.8906C29.3138 27.553 32.634 28.4788 36.002 28.9976C39.354 29.5164 42.6901 30.2985 45.9942 31.0647C49.3782 31.8548 52.7861 32.5731 56.1701 33.3792C57.455 33.6825 61.677 35.2148 63.0258 33.8022C62.7545 34.8158 61.9164 35.5101 60.2564 35.2627C58.5564 35.0073 57.048 34.2012 55.4358 33.6745C53.672 33.0998 51.8843 32.629 50.0726 32.2219C45.5713 31.2083 41.0779 30.1389 36.5607 29.2131C31.9396 28.2633 27.2947 27.7047 22.6178 27.146C19.3136 26.7469 15.9057 26.276 12.5616 26.2361C11.3565 26.2202 9.99174 26.1883 8.85843 26.6831C8.35562 26.8986 7.24626 27.545 7.50165 28.2713C7.78897 29.0934 8.73073 29.3328 9.48095 29.5882C10.2391 29.8436 11.0772 30.1628 11.6598 30.7375C12.3701 31.4398 12.7053 32.3257 13.2241 33.1557C14.6766 35.5101 16.7038 36.9946 19.2737 37.9763C25.036 40.195 33.3203 39.3251 37.1113 44.9996C34.5973 44.2015 32.0992 43.3635 29.4176 43.571C29.266 43.5869 29.2819 43.7466 29.3298 43.8423C30.1519 45.7737 30.6706 47.8408 31.5486 49.7483C32.4345 51.6638 33.6715 53.228 35.0602 54.8083C36.0499 55.9336 37.0714 57.035 38.1249 58.0885C37.2071 57.4341 36.2973 56.7557 35.4353 56.0374C33.0809 54.0661 31.2134 51.8074 29.3298 49.4131C27.5421 47.1465 26.9435 44.1696 25.2515 41.8151C24.9323 41.3682 24.5731 40.9931 24.182 40.6659C25.9459 41.0729 27.7177 41.4161 29.5054 41.7433C31.764 42.1663 34.2541 42.6771 36.1217 44.0259C36.1376 44.0419 36.1696 44.0339 36.1696 44.0099C36.1456 43.8663 36.1696 43.9142 36.0499 43.7944C36.0259 43.7705 36.0099 43.7944 36.0259 43.8184C34.8766 42.3738 32.6818 42.0386 31.0537 41.456C29.3458 40.8335 27.574 40.6419 25.8022 40.2509C23.8788 39.8199 21.9633 39.3251 20.0479 38.8781C17.9169 38.3753 16.0972 37.8645 14.2057 36.7073C12.402 35.5979 11.2128 34.2491 10.1913 32.4294C9.61663 31.4079 8.89833 30.8492 7.75704 30.5299C5.97727 30.0351 4.13364 29.5642 2.61724 28.4389C2.03463 28.0079 1.6675 27.2657 1.41211 26.4357C1.51586 26.4915 1.63557 26.5394 1.80317 26.5713C3.30361 26.8906 5.04349 26.707 6.55191 26.4676L6.54392 26.4756Z" fill="#6BA74D"/>
</g>
<g style="mix-blend-mode:multiply" opacity="0.6">
<path d="M52.4187 24.9912C51.6605 25.2546 50.8784 25.4541 50.1042 25.5818C50.8864 25.4382 51.6685 25.2466 52.4187 24.9912Z" fill="#6BA74D"/>
</g>
<g style="mix-blend-mode:multiply" opacity="0.6">
<path d="M4.02149 18.6862C4.04543 18.5904 4.07736 18.4946 4.10928 18.4068C5.71347 17.2416 7.25381 15.9886 8.80213 14.7515C10.55 13.3548 12.641 12.0859 14.0856 10.3699C15.0992 9.16479 15.163 7.24135 15.2588 5.78082C15.3386 4.59963 15.2907 2.5884 16.2085 1.72645C16.3043 1.63068 16.416 1.54289 16.5198 1.46308C17.6451 0.617085 18.9301 0.712858 20.3268 0.896422C22.5615 1.19172 24.7562 1.22364 27.0149 1.22364C28.0285 1.22364 29.0421 1.35134 30.0557 1.35932C31.2608 1.37528 32.6495 1.30345 33.8307 1.53491C34.9081 1.75039 36.3607 1.80626 37.3663 2.22926C37.5977 2.32503 37.8132 2.43676 38.0447 2.43676C37.4621 3.00342 36.9433 3.63392 36.4405 4.31231C36.0255 4.87896 35.7462 5.4536 35.5387 6.10006C35.4828 5.80477 35.4109 5.51745 35.3232 5.24609C35.3232 5.24609 35.3232 5.23013 35.3232 5.22215C35.7861 3.40247 33.4316 2.76399 32.1068 2.92361C30.8697 3.07525 29.6726 3.50622 28.4355 3.602C26.4801 3.75364 25.0515 2.89966 23.2319 2.45273C21.5958 2.05367 19.9995 2.30907 18.962 3.75364C17.6611 5.55735 17.3897 7.78407 16.3522 9.7075C15.578 11.1361 14.5405 12.461 13.1358 13.3149C11.9786 14.0173 10.6378 14.4243 9.53638 15.2064C8.86598 15.6853 8.27539 16.244 8.17163 17.1059C8.04394 18.2153 8.51481 19.8434 7.75661 20.7852C7.19794 21.4875 6.29608 21.9983 5.3623 21.8227C3.60647 21.4875 3.68629 19.9073 4.02149 18.6942V18.6862Z" fill="#6BA74D"/>
</g>
<g style="mix-blend-mode:multiply" opacity="0.6">
<path d="M16.56 18.3672C17.5736 18.7104 18.2041 19.716 17.1186 20.3545C16.6557 20.6258 16.1529 20.7695 15.6741 20.993C15.0037 21.3042 14.437 21.7591 13.8544 22.1901C13.7027 22.23 13.5591 22.2619 13.4074 22.2939C12.5774 20.7775 14.9238 17.8165 16.56 18.3672Z" fill="#6BA74D"/>
</g>
<g style="mix-blend-mode:multiply" opacity="0.6">
<path d="M59.4657 13.2514C59.5296 12.988 59.5854 12.7247 59.6413 12.4613C60.2638 15.2626 59.4577 18.6386 57.7179 20.7057C54.8606 24.0897 50.3035 25.7018 45.9299 25.3587C41.1971 24.9915 36.8155 23.1 35.1076 18.3673C34.3573 16.3002 34.078 14.281 34.5808 12.1101C34.6447 11.8467 34.7085 11.5754 34.7723 11.312C35.1315 12.8603 35.6982 14.3368 36.4564 15.7016C36.6718 16.1405 36.9272 16.5556 37.2225 16.9387C39.5291 20.3306 43.0886 22.7728 47.4782 23.1798C50.7025 23.4831 54.0626 22.9005 56.2653 20.3146C56.7043 19.8038 57.0714 19.2452 57.4146 18.6705C58.7474 17.0344 59.3699 15.1669 59.4737 13.2434L59.4657 13.2514Z" fill="#6BA74D"/>
</g>
<g style="mix-blend-mode:multiply" opacity="0.6">
<path d="M60.2325 7.29699C59.4344 5.90828 58.4048 5.01441 57.2476 3.93697C57.8781 3.85715 58.5165 3.80129 59.163 3.77734C59.0912 4.60737 59.7217 5.51721 60.2006 6.10781C61.4935 7.69604 62.6188 9.13263 62.7146 11.2955C62.7784 12.772 62.539 14.1687 62.0522 15.5095C61.9005 11.7105 60.5996 7.97538 57.894 5.32567C59.163 6.33128 60.1367 7.64815 60.855 9.1007C61.3179 10.0425 61.4695 11.072 61.9324 12.0058C61.9324 12.0218 61.9723 12.0218 61.9644 12.0058C61.6052 11.1838 61.5653 10.2899 61.2461 9.45187C60.9667 8.70963 60.6236 7.99932 60.2245 7.31295L60.2325 7.29699Z" fill="#6BA74D"/>
</g>
<g style="mix-blend-mode:multiply" opacity="0.6">
<path d="M1.86676 20.7051C1.85877 20.9685 1.87474 21.2318 1.92263 21.4872C2.25783 23.3149 4.02165 24.0811 5.72959 24.1848C9.768 24.4242 13.8463 23.8975 17.8847 23.8815C21.979 23.8656 26.0573 24.3205 30.0957 24.967C34.4374 25.6613 38.811 26.5233 42.9452 28.0397C46.6005 29.3805 50.2159 30.9607 54.0309 31.8227C55.8027 32.2217 58.9552 33.0837 60.5993 31.8067C61.3575 31.2161 61.4533 30.442 61.2458 29.6518C61.6209 29.8514 61.972 30.0908 62.3072 30.3462C62.6265 30.849 62.8739 31.4316 63.0096 32.0062C63.0096 32.94 62.4748 33.7541 61.158 33.7301C59.5857 33.6982 58.1331 33.3471 56.6247 32.948C53.7835 32.2137 50.8943 31.6072 48.0531 30.8809C42.7217 29.5162 37.2707 28.3908 31.8595 27.4251C28.9544 26.9064 26.0972 26.196 23.1761 25.7331C20.6701 25.3341 18.1641 25.0627 15.6421 24.7914C13.1999 24.536 10.7816 25.1026 8.38727 25.4139C6.96664 25.5975 5.56996 25.9327 4.12539 25.9566C3.16767 25.9726 1.82686 26.3397 1.3879 25.3261C1.34001 25.2303 1.20434 25.1266 1.07664 25.1026C0.996829 24.6318 0.940953 24.1689 0.893066 23.7538C0.99682 22.6844 1.32405 21.6309 1.8508 20.7051H1.86676Z" fill="#6BA74D"/>
</g>
<g style="mix-blend-mode:multiply" opacity="0.6">
<path d="M99.8582 61.7676C99.6747 62.1427 99.4831 62.5018 99.2517 62.869C98.7489 63.6591 98.1902 64.4013 97.6235 65.1436C98.3977 64.0342 99.1958 62.9408 99.8662 61.7676H99.8582Z" fill="#6BA74D"/>
</g>
</g>
</svg>
