<svg width="94" height="87" viewBox="0 0 94 87" fill="none" xmlns="http://www.w3.org/2000/svg">
<path d="M77.9049 51.507L79.004 50.852L79.2052 50.7321L79.4286 50.6619C80.3362 50.3769 81.3252 50.1129 82.2465 49.867C82.8224 49.7133 83.3719 49.5666 83.8584 49.4263L83.8654 49.4243L83.8723 49.4223C84.3389 49.2914 84.7786 49.1666 85.2081 49.0336C86.0737 48.7656 86.855 48.4824 87.5744 48.125L87.5753 48.1245C89.2396 47.2986 90.3532 44.9595 90.6583 42.319C90.989 39.4355 90.0254 37.1941 87.9785 34.8906L87.9784 34.8905C86.1214 32.8004 84.2609 30.7053 82.4378 28.5488C81.9823 28.0101 81.4872 27.4153 81.0315 26.7954L81.0298 26.7931C80.1695 25.6195 79.2057 24.0444 79.135 22.2699C79.0549 20.2609 80.1102 18.5572 82.0639 17.2454C83.1287 16.4904 84.3026 15.8781 85.3603 15.338C85.4685 15.2827 85.5754 15.2283 85.6811 15.1744C86.6599 14.6758 87.5305 14.2322 88.3175 13.7292C89.9586 12.6803 90.8932 11.5978 91.0266 9.81479C91.0127 9.3758 90.9323 8.95438 90.7885 8.55534C90.4984 7.75012 89.927 7.01581 88.9711 6.49061C86.8543 5.39709 84.5716 5.31369 82.5793 6.12532C82.1897 6.28504 81.8094 6.48535 81.4368 6.73257L81.3315 6.80248L81.2181 6.85856C81.1305 6.90191 81.0204 6.97444 80.8011 7.14617C80.7724 7.16864 80.7394 7.19485 80.7027 7.22399C80.5381 7.35477 80.2992 7.54454 80.0412 7.71992C79.4975 8.19127 78.9774 8.78535 78.4181 9.49077C78.2205 9.74002 77.997 10.0316 77.7624 10.3376C77.3773 10.84 76.9624 11.3811 76.5837 11.8374C75.2985 13.3861 73.5036 15.1631 70.7477 15.3436L70.7325 15.3446L70.7173 15.3454C68.9356 15.4348 67.473 14.865 66.3115 13.882C65.216 12.9547 64.4599 11.721 63.8812 10.5722C63.4773 9.77034 63.0965 8.87162 62.7493 8.05215C62.609 7.72114 62.4743 7.40306 62.3457 7.10952C61.8611 6.00354 61.4201 5.13155 60.9249 4.49472L60.9065 4.47106L60.8888 4.44686C60.668 4.14467 60.4197 3.91615 60.1385 3.72793C59.8412 3.52898 59.4853 3.35318 59.0508 3.18654C58.5974 3.02484 58.1436 2.8896 57.6792 2.7762C57.2036 2.66004 56.7456 2.57257 56.2994 2.52122L56.2913 2.52028C55.4552 2.42057 54.8628 2.60319 54.3539 2.93699C53.791 3.30616 53.2397 3.92354 52.6636 4.82547C52.1085 5.69459 51.615 6.68741 51.0712 7.78136L51.0056 7.91334C50.4712 8.98793 49.8729 10.1831 49.1714 11.207C48.9982 11.4949 48.8365 11.7778 48.6621 12.083C48.5594 12.2628 48.4522 12.4503 48.3357 12.6511L77.9049 51.507ZM77.9049 51.507C75.5464 52.6961 73.069 55.6053 74.0857 59.0979L74.1013 59.1515L74.1199 59.2041C74.3815 59.9458 74.6874 60.6692 75.0482 61.383C75.8086 63.0461 76.8995 64.4518 78.1411 65.6188L78.1415 65.6192C78.552 66.0049 78.9867 66.3744 79.4357 66.7163C82.7423 69.2485 85.3857 73.0107 85.4104 77.0078C85.4336 80.9513 81.697 84.4556 77.9875 84.2564L77.9602 84.2549L77.933 84.2542C77.4772 84.2422 77.0083 84.1819 76.534 84.0736C76.1017 83.9736 75.6702 83.8436 75.2386 83.6791C73.3179 82.9321 72.4205 81.2877 71.8266 78.5848C71.6057 77.5797 71.4508 76.5484 71.285 75.4446C71.2255 75.0484 71.1646 74.6428 71.0987 74.2257C70.8599 72.7138 70.5592 71.0857 70.007 69.5935L69.9902 69.548L69.9711 69.5034C69.9446 69.4411 69.9135 69.3653 69.8782 69.2793C69.7095 68.8675 69.4438 68.2192 69.1075 67.6721C68.6677 66.9567 67.9201 66.0763 66.6625 65.7275L66.6088 65.7126L66.5544 65.7007C65.6832 65.5105 64.8683 65.5309 64.1066 65.7049L64.0942 65.7077L64.0819 65.7107C63.3224 65.8943 62.6571 66.228 62.0779 66.6281L61.98 66.6957L61.8908 66.7745C61.0518 67.5153 60.3598 68.384 59.7694 69.1767C59.5431 69.4806 59.3387 69.7629 59.1441 70.0316C58.7912 70.5191 58.4703 70.9623 58.1079 71.4109C57.0413 72.7315 56.1573 73.3807 54.9706 73.4524L54.9489 73.4537L54.9271 73.4555C53.9932 73.5325 53.1269 73.257 51.9421 72.7265C51.7628 72.6462 51.5707 72.5569 51.3672 72.4622C50.3515 71.9899 49.051 71.385 47.633 71.1124C45.9803 70.7634 44.5604 71.2664 43.484 72.0403C42.465 72.7729 41.7092 73.7707 41.1781 74.623C40.7065 75.3217 40.2725 76.0317 39.8698 76.7169L39.8664 76.7227C39.4646 77.4116 39.0947 78.0855 38.7491 78.722C38.6409 78.8893 38.5062 79.054 38.3137 79.266C38.2683 79.316 38.2106 79.378 38.1453 79.4482C37.9806 79.6253 37.7673 79.8546 37.5806 80.0744C37.1294 80.5436 36.657 81.003 36.177 81.4386C34.3876 83.0535 32.6535 84.1392 31.1055 84.4209C29.7731 84.6633 28.3362 84.3627 26.7627 82.5095L26.7559 82.5016C25.9026 81.5073 25.6546 80.6871 25.6395 80.0071C25.6234 79.2844 25.8662 78.4768 26.4064 77.5345C26.9497 76.587 27.7225 75.6245 28.6165 74.6099C28.914 74.2722 29.2406 73.9122 29.5739 73.5449C30.1706 72.8872 30.7888 72.206 31.2997 71.5869L31.3348 71.5443L31.3675 71.4999C32.1215 70.4762 32.6901 69.178 32.8306 67.7945L77.9049 51.507ZM25.7668 13.2288C25.8203 12.6526 25.9273 12.1733 26.0742 11.7858L26.0749 11.784C26.3006 11.187 26.6023 10.8097 26.9788 10.5647C27.3644 10.3139 28.0116 10.083 29.1287 10.1076C29.6628 10.1207 30.1825 10.1767 30.7146 10.2838L30.7921 10.2994L30.8707 10.3089C31.3045 10.361 31.8746 10.5646 32.4408 10.8978C33.3965 11.4835 34.1533 12.2488 35.075 13.1808C35.3682 13.4772 35.678 13.7906 36.0163 14.1204C37.2965 15.3685 38.9651 16.8004 41.3423 17.1682C43.2358 17.4911 44.7604 16.8693 45.9202 15.8557C46.9797 14.9298 47.7481 13.6653 48.3354 12.6516C48.3353 12.6518 48.3352 12.6521 48.335 12.6523L25.7668 13.2288Z" fill="white" stroke="#D9D9D9" stroke-width="4"/>
</svg>
